<svg width="29" height="29" viewBox="0 0 29 29" fill="none" xmlns="http://www.w3.org/2000/svg">
<path d="M8.27506 13.5258L15.9282 21.1789L16.5597 21.1789C18.3768 19.3618 18.1054 17.8539 17.8242 17.1682C25.3665 11.4282 24.5517 5.56331 24.5129 5.31409L24.1405 4.94163C23.8905 4.90217 18.0264 4.0881 12.2864 11.6303C11.6006 11.3491 10.0919 11.0786 8.27563 12.8949L8.27506 13.5258ZM16.2326 20.2204L9.23384 13.2216C10.9375 11.7482 12.1067 12.526 12.1585 12.563L12.7768 12.4644C17.4668 6.11509 22.3286 5.76561 23.654 5.80028C23.6886 7.12407 23.3414 11.9868 16.9899 16.6775L16.8946 17.2991C16.9275 17.3484 17.706 18.5167 16.2326 20.2204Z" fill="#6A6A6A"/>
<path d="M23.1196 10.5348L18.9197 6.3349L18.2883 6.96637L22.4882 11.1663L23.1196 10.5348Z" fill="#6A6A6A"/>
<path d="M8.68447 17.5926L11.8616 20.7697L12.3516 20.865L14.9211 19.7789L14.5741 18.9567L12.2809 19.9261L9.52815 17.1733L10.4976 14.8801L9.67535 14.5332L8.58918 17.1026L8.68447 17.5926Z" fill="#6A6A6A"/>
<path d="M16.7529 12.7012C17.5069 13.4552 18.7337 13.4552 19.4876 12.7012C20.2416 11.9472 20.2416 10.7205 19.4876 9.9665C18.7337 9.21253 17.5069 9.21253 16.7529 9.9665C15.9989 10.7205 15.9989 11.9472 16.7529 12.7012ZM18.8562 10.598C19.2615 11.0033 19.2615 11.6644 18.8562 12.0698C18.4508 12.4751 17.7897 12.4751 17.3844 12.0698C16.979 11.6644 16.979 11.0033 17.3844 10.598C17.7897 10.1926 18.4508 10.1926 18.8562 10.598Z" fill="#6A6A6A"/>
<path d="M8.57247 26.3214L11.0178 22.4175L10.2613 21.9439L7.81602 25.8478L8.57247 26.3214Z" fill="#6A6A6A"/>
<path d="M9.27246 20.8134L8.64099 20.1819L4.81199 24.0109L5.44345 24.6424L9.27246 20.8134Z" fill="#6A6A6A"/>
<path d="M7.51141 19.1937L7.0378 18.4372L3.13306 20.8817L3.60667 21.6381L7.51141 19.1937Z" fill="#6A6A6A"/>
</svg>
