<svg width="20" height="17" viewBox="0 0 20 17" fill="none" xmlns="http://www.w3.org/2000/svg">
<path d="M2.5293 16.4853C0.977051 16.4853 0.171875 15.6884 0.171875 14.1445V5.57806C0.171875 4.31634 0.711426 3.58587 1.84863 3.25384L12.8555 0.149344C14.5571 -0.3238 15.7358 0.331961 15.7358 2.05022V3.23723H16.0513C17.6035 3.23723 18.4087 4.05071 18.4087 5.57806V7.26311C19.2886 7.33782 19.8281 7.96038 19.8281 8.84856V10.8491C19.8281 11.7455 19.2886 12.3681 18.4087 12.4428V14.1445C18.4087 15.6718 17.6035 16.4853 16.0513 16.4853H2.5293ZM5.80811 3.23723H14.6899V1.98382C14.6899 1.17864 14.1919 0.788504 13.2954 1.03753L5.7915 3.07952C5.64209 3.11272 5.66699 3.23723 5.80811 3.23723ZM15.2876 12.4511C13.5195 12.4511 12.4155 11.5629 12.4155 9.85296C12.4155 8.1347 13.5195 7.25481 15.2876 7.25481H17.3628V5.62786C17.3628 4.73968 16.8813 4.27483 16.0264 4.27483H2.5459C1.67432 4.27483 1.21777 4.73968 1.21777 5.62786V14.0947C1.21777 14.9911 1.67432 15.4394 2.5459 15.4394H16.0264C16.8813 15.4394 17.3628 14.9911 17.3628 14.0947V12.4511H15.2876ZM15.3374 11.5629H18.0684C18.6411 11.5629 18.9399 11.2392 18.9399 10.6996V9.00628C18.9399 8.45843 18.6411 8.1347 18.0684 8.1347H15.3374C14.0176 8.1347 13.3452 8.77386 13.3452 9.85296C13.3452 10.9321 14.0176 11.5629 15.3374 11.5629ZM15.1797 10.7245C14.6899 10.7245 14.2998 10.3344 14.2998 9.84466C14.2998 9.36321 14.6899 8.97307 15.1797 8.97307C15.6694 8.97307 16.0596 9.36321 16.0596 9.84466C16.0596 10.3344 15.6694 10.7245 15.1797 10.7245Z" fill="#6A6A6A"/>
</svg>
