<svg width="26" height="18" viewBox="0 0 26 18" fill="none" xmlns="http://www.w3.org/2000/svg">
<path d="M14.8672 7.32812C13.0469 7.32812 11.5859 5.73438 11.5859 3.73438C11.5859 1.78906 13.0547 0.234375 14.8672 0.234375C16.6719 0.234375 18.1484 1.80469 18.1484 3.74219C18.1484 5.73438 16.6875 7.32812 14.8672 7.32812ZM14.8672 6.41406C16.1406 6.41406 17.1797 5.25 17.1797 3.74219C17.1797 2.29688 16.1406 1.14844 14.8672 1.14844C13.5938 1.14844 12.5469 2.28125 12.5469 3.73438C12.5469 5.24219 13.5859 6.41406 14.8672 6.41406ZM5.86719 7.42969C4.28125 7.42969 3.01562 6.04688 3.01562 4.28906C3.01562 2.60938 4.29688 1.21094 5.86719 1.21094C7.44531 1.21094 8.71875 2.58594 8.71875 4.28125C8.71875 6.03906 7.45312 7.42969 5.86719 7.42969ZM5.86719 6.53125C6.94531 6.53125 7.82031 5.54688 7.82031 4.28125C7.82031 3.08594 6.94531 2.11719 5.86719 2.11719C4.79688 2.11719 3.91406 3.09375 3.91406 4.28906C3.91406 5.54688 4.78906 6.53125 5.86719 6.53125ZM1.42188 14.4922C0.476562 14.4922 0 14.0938 0 13.2812C0 10.8047 2.5 8.375 5.85938 8.375C7.23438 8.375 8.5 8.76562 9.53906 9.52344C9.27344 9.71094 9.04688 9.92188 8.85156 10.1562C8.02344 9.57812 7 9.27344 5.85938 9.27344C3.1875 9.27344 0.90625 11.1484 0.90625 13.2344C0.90625 13.4922 1.01562 13.5938 1.29688 13.5938H7.32812C7.32812 13.9688 7.57031 14.3281 7.85938 14.4922H1.42188ZM16.8906 14.4922H9.83594C8.6875 14.4922 8.14062 14.125 8.14062 13.3359C8.14062 11.3047 10.7031 8.39844 14.875 8.39844C16.3984 8.39844 17.7031 8.78906 18.7422 9.39844C18.4844 9.59375 18.2578 9.8125 18.0469 10.0703C17.2031 9.60938 16.1328 9.3125 14.875 9.3125C11.2031 9.3125 9.10938 11.7578 9.10938 13.2422C9.10938 13.4844 9.23438 13.5781 9.58594 13.5781H16.7422C16.7578 13.8906 16.8047 14.1953 16.8906 14.4922ZM21.5312 17.1719C19.4062 17.1719 17.6484 15.4219 17.6484 13.2891C17.6484 11.1641 19.4062 9.40625 21.5312 9.40625C23.6641 9.40625 25.4141 11.1562 25.4141 13.2891C25.4141 15.4141 23.6406 17.1719 21.5312 17.1719ZM21.5312 15.75C21.7891 15.75 21.9453 15.5781 21.9453 15.3359V13.7031H23.5703C23.8203 13.7031 23.9922 13.5469 23.9922 13.2891C23.9922 13.0312 23.8203 12.8672 23.5703 12.8672H21.9453V11.2422C21.9453 11 21.7891 10.8281 21.5312 10.8281C21.2734 10.8281 21.1094 11 21.1094 11.2422V12.8672H19.4844C19.2422 12.8672 19.0625 13.0312 19.0625 13.2891C19.0625 13.5469 19.2422 13.7031 19.4844 13.7031H21.1094V15.3359C21.1094 15.5781 21.2734 15.75 21.5312 15.75Z" fill="#6A6A6A"/>
</svg>
