<svg width="24" height="16" viewBox="0 0 24 16" fill="none" xmlns="http://www.w3.org/2000/svg">
<path d="M23.9991 7.8218C23.9991 5.83662 19.7882 4.94327 17.6462 4.61749C17.2794 2.82858 16.0575 0 11.9995 0C7.94164 0 6.71968 2.82858 6.35286 4.61749C4.21139 4.94327 0 5.83618 0 7.8218C0 9.18901 2.11267 10.1876 5.02828 10.7821C5.12505 11.5972 5.57783 12.2382 6.19758 12.3911C6.35241 12.4291 6.51444 12.4565 6.67152 12.491L5.59538 14.6353C5.48556 14.8541 5.57693 15.1193 5.80016 15.2272C5.86408 15.2581 5.93159 15.2727 5.99865 15.2727C6.16473 15.2727 6.32451 15.1821 6.40282 15.0261L7.57933 12.6815C8.82334 12.9012 10.1362 13.0153 11.4941 13.0374V14.8307C11.4941 15.0747 11.6957 15.2727 11.9442 15.2727C12.1926 15.2727 12.3943 15.0747 12.3943 14.8307V13.0374C13.7418 13.0153 15.0686 12.9017 16.3136 12.6912L17.4851 15.0261C17.5634 15.1826 17.7232 15.2727 17.8893 15.2727C17.9559 15.2727 18.0239 15.2581 18.0878 15.2272C18.311 15.1193 18.4024 14.8541 18.2926 14.6353L17.2259 12.5096C17.4176 12.4689 17.617 12.4349 17.8038 12.3898C18.4226 12.239 18.8745 11.5985 18.9717 10.7825C21.8873 10.188 24 9.18945 24 7.82224L23.9991 7.8218ZM11.9991 0.884069C15.7883 0.884069 16.6741 3.73121 16.8649 5.42862C16.8946 5.69384 16.7222 5.93961 16.4544 6.01299C15.0466 6.39889 13.5478 6.59427 11.9995 6.59427H11.9986C10.4504 6.59427 8.95117 6.39889 7.54377 6.01299C7.27597 5.93961 7.10359 5.69384 7.1333 5.42862C7.32413 3.73121 8.20989 0.884069 11.9991 0.884069ZM17.5864 11.5313C17.2524 11.6127 16.9023 11.6799 16.5512 11.7457C16.5107 11.7466 16.4715 11.7586 16.4315 11.7705C15.0218 12.0273 13.4952 12.1652 11.9433 12.1652C9.98005 12.1652 8.11987 11.9526 6.41587 11.5331C6.24889 11.492 6.07471 11.2759 5.97975 10.9571C7.83902 11.2648 9.94134 11.4235 11.9991 11.4235C14.0569 11.4235 16.1578 11.2648 18.0167 10.9571C17.9221 11.2705 17.7511 11.4911 17.5864 11.5313ZM11.9991 10.5399C5.12235 10.5399 0.899257 8.9565 0.899257 7.8218C0.899257 7.09111 2.73108 6.09609 6.23404 5.53206C6.25294 6.14958 6.67422 6.69284 7.30163 6.86479C8.78824 7.27191 10.368 7.47834 11.9986 7.47834H11.9995C13.6297 7.47834 15.21 7.27191 16.6966 6.86479C17.324 6.69284 17.7453 6.15002 17.7642 5.53206C21.2671 6.09609 23.0989 7.09111 23.0989 7.8218C23.0989 8.9565 18.8763 10.5399 11.9991 10.5399Z" fill="#6A6A6A"/>
<path d="M12.0986 8.72729H11.9012C11.7549 8.72729 11.6362 8.8902 11.6362 9.09093C11.6362 9.29166 11.7549 9.45457 11.9012 9.45457H12.0986C12.2448 9.45457 12.3635 9.29166 12.3635 9.09093C12.3635 8.8902 12.2448 8.72729 12.0986 8.72729Z" fill="#6A6A6A"/>
<path d="M4.8261 8H4.62871C4.48246 8 4.36377 8.16291 4.36377 8.36364C4.36377 8.56436 4.48246 8.72727 4.62871 8.72727H4.8261C4.97235 8.72727 5.09104 8.56436 5.09104 8.36364C5.09104 8.16291 4.97235 8 4.8261 8Z" fill="#6A6A6A"/>
<path d="M19.1063 8H18.7115C18.419 8 18.1816 8.16291 18.1816 8.36364C18.1816 8.56436 18.419 8.72727 18.7115 8.72727H19.1063C19.3988 8.72727 19.6362 8.56436 19.6362 8.36364C19.6362 8.16291 19.3988 8 19.1063 8Z" fill="#6A6A6A"/>
<path d="M8.43113 5.0879C8.45177 5.09008 8.47191 5.09095 8.49206 5.09095C8.73673 5.09095 8.94849 4.92886 8.97895 4.70779C9.08115 3.96857 9.51351 2.67492 11.2552 2.31753C11.5196 2.26292 11.6846 2.02831 11.6237 1.79326C11.5623 1.55777 11.2965 1.41229 11.0341 1.46559C8.62275 1.96059 8.11129 3.82308 8.00369 4.60032C7.97077 4.83974 8.16189 5.05819 8.43113 5.0879Z" fill="#6A6A6A"/>
</svg>
