<svg width="22" height="20" viewBox="0 0 22 20" fill="none" xmlns="http://www.w3.org/2000/svg">
<rect x="0.520216" y="1.02276" width="12.1728" height="14.3682" rx="3.5" transform="rotate(-2.36606 0.520216 1.02276)" stroke="#6A6A6A"/>
<path d="M4.09189 7.87322C4.04137 6.91508 4.67301 6.23635 5.48487 6.19354C5.97004 6.16796 6.34205 6.36104 6.57036 6.65704C6.7687 6.33854 7.11834 6.10741 7.60351 6.08182C8.41537 6.03901 9.11489 6.64755 9.16541 7.6057C9.22056 8.65161 8.39546 9.74149 7.1007 10.6874C6.99241 10.7665 6.87424 10.8436 6.79135 10.848C6.71089 10.8522 6.58526 10.788 6.46926 10.7207C5.08219 9.9162 4.14705 8.91913 4.09189 7.87322ZM4.75709 7.83081C4.79861 8.61829 5.64136 9.48577 6.71634 10.121C6.73392 10.1298 6.74662 10.1389 6.75394 10.1385C6.76369 10.138 6.77536 10.1276 6.79192 10.117C7.79413 9.37225 8.54097 8.42096 8.49945 7.63348C8.46975 7.0703 8.06654 6.70283 7.55456 6.72983C7.14741 6.7513 6.94764 6.99653 6.80036 7.217C6.73005 7.32094 6.68347 7.36496 6.60789 7.36895C6.53475 7.3728 6.47649 7.33431 6.40296 7.23795C6.24305 7.03369 6.00885 6.81134 5.59927 6.83293C5.08972 6.8598 4.72739 7.26763 4.75709 7.83081Z" fill="#6A6A6A"/>
<path fill-rule="evenodd" clip-rule="evenodd" d="M7.13428 16.9322C7.75132 17.3113 8.56901 17.7171 9.66335 18.2603C11.8277 19.3345 12.9099 19.8716 13.9469 19.8227C14.691 19.7876 15.4105 19.5454 16.0244 19.1233C16.8799 18.5352 17.417 17.4531 18.4912 15.2887L19.4672 13.3221C20.5414 11.1577 21.0785 10.0755 21.0296 9.03857C20.9945 8.29444 20.7523 7.5749 20.3303 6.96102C19.7422 6.10559 18.66 5.56848 16.4956 4.49427C15.7045 4.10165 15.058 3.78079 14.5055 3.53406C14.5236 3.8757 14.5398 4.24896 14.5568 4.65869C14.9801 4.85877 15.4689 5.10108 16.051 5.39001C17.1492 5.93505 17.9143 6.3158 18.4827 6.66304C19.0399 7.00342 19.3248 7.26371 19.5062 7.52753C19.8227 7.98794 20.0044 8.5276 20.0307 9.0857C20.0458 9.4055 19.9762 9.78514 19.7383 10.3931C19.4956 11.0134 19.1165 11.7793 18.5715 12.8775L17.5954 14.8441C17.0504 15.9423 16.6696 16.7074 16.3224 17.2758C15.982 17.8329 15.7217 18.1179 15.4579 18.2993C14.9975 18.6158 14.4578 18.7975 13.8997 18.8238C13.5799 18.8389 13.2003 18.7693 12.5923 18.5314C11.972 18.2887 11.2061 17.9096 10.1079 17.3645C9.73046 17.1772 9.39235 17.0093 9.08805 16.8554C8.89119 16.8639 8.68535 16.8724 8.46989 16.8813C7.977 16.9017 7.53443 16.92 7.13428 16.9322Z" fill="#64686F"/>
</svg>
